<svg width="287" height="608" viewBox="0 0 287 608" fill="none" xmlns="http://www.w3.org/2000/svg">
<path d="M84.1941 437.619C84.1941 437.619 101.557 465.354 104.711 476.933C107.88 488.988 111.856 492.433 112.577 506.133C112.666 509.105 112.401 515.23 112.53 517.64C112.509 518.168 112.605 518.695 112.811 519.182C113.017 519.669 113.329 520.104 113.723 520.457C114.117 520.81 114.584 521.071 115.09 521.222C115.597 521.373 116.131 521.411 116.654 521.332C122.266 521.331 129.151 509.535 131.129 497.858C132.832 484.477 133.691 471.002 133.704 457.512C133.297 454.469 132.065 451.595 130.142 449.201C129.151 447.773 128 446.461 126.714 445.291C123.758 440.329 120.653 430.405 117.647 423.732L84.1941 437.619Z" fill="#C8856A"/>
<path d="M146.657 466.467C147.633 467.565 148.411 468.823 148.957 470.186C149.619 472.58 145.714 481.761 144.131 485.12C141.866 489.694 141.471 494.97 143.03 499.829C144.653 507.821 143.339 516.131 139.329 523.232C134.013 533.097 125.816 541.106 115.83 546.191C103.542 552.819 97.5403 547.331 97.5403 547.331C97.5403 547.331 92.129 541.881 94.0352 539.018C95.9414 536.154 146.657 466.467 146.657 466.467Z" fill="#263238"/>
<path d="M126.717 445.404C127.137 445.391 127.8 445.034 129.093 446.034C129.581 446.412 133.221 451.718 135.85 454.249C138.48 456.78 144.938 461.552 146.653 466.355C145.64 476.516 137.926 484.998 138.485 494.27C139.045 503.541 141.1 514.03 129.311 527.911C117.522 541.791 103.25 545.896 97.4138 544.051C91.5776 542.207 90.8762 536.615 95.9066 524.734C101.279 512.085 101.367 487.052 101.367 487.024C101.331 483.519 101.057 480.021 100.547 476.554C99.765 473.181 98.7274 469.872 97.4427 466.657C96.8394 465.162 96.7308 463.513 97.1328 461.952C97.8662 460.503 99.0249 459.313 100.454 458.541C102.555 456.993 104.821 455.682 107.211 454.634C109.631 453.592 112.325 453.373 114.881 454.01C116.693 454.545 118.325 455.618 120.188 455.983C121.433 456.2 122.714 456.068 123.889 455.602C125.063 455.136 126.086 454.353 126.843 453.341C127.628 452.442 128.104 451.316 128.205 450.127C128.305 448.938 128.024 447.748 127.402 446.73L126.717 445.404Z" fill="black"/>
<path d="M135.706 517.532C132.85 514.476 129.225 512.244 125.21 511.071C121.195 509.899 116.939 509.828 112.887 510.866C97.9114 513.954 94.2954 522.482 92.9546 527.349C91.3612 533.149 90.6249 543.189 97.3201 544.671C104.635 546.247 112.193 543.747 123.107 535.281C134.02 526.815 135.706 517.532 135.706 517.532Z" fill="#FAFAFA"/>
<path d="M123.503 473.843C123.314 473.994 123.092 474.099 122.855 474.15C122.618 474.201 122.372 474.196 122.137 474.136C119.59 473.427 106.766 473.42 101.028 481.366C99.9457 480.837 99.8483 479.465 100.626 477.337C107.884 470.468 120.061 470.41 123.088 471.245C123.28 471.289 123.459 471.373 123.615 471.492C123.771 471.61 123.9 471.761 123.993 471.934C124.086 472.106 124.14 472.297 124.154 472.493C124.167 472.688 124.138 472.884 124.069 473.068C123.975 473.384 123.776 473.657 123.503 473.843Z" fill="#FAFAFA"/>
<path d="M101.295 490.225C100.955 489.575 100.779 488.852 100.781 488.118C100.783 487.385 100.964 486.663 101.308 486.015C107.509 481.486 115.252 479.599 122.842 480.765C123.033 480.81 123.213 480.894 123.369 481.012C123.526 481.131 123.656 481.28 123.751 481.452C123.846 481.624 123.904 481.814 123.921 482.009C123.939 482.205 123.914 482.402 123.851 482.587C123.746 482.897 123.548 483.168 123.285 483.362C123.095 483.512 122.871 483.615 122.634 483.661C122.396 483.707 122.15 483.696 121.918 483.628C119.429 482.973 107.22 482.919 101.295 490.225Z" fill="#FAFAFA"/>
<path d="M99.4287 511.215C99.0278 509.303 99.3052 507.31 100.213 505.579C107.479 498.991 119.32 498.943 122.487 499.746C122.675 499.8 122.849 499.892 123.001 500.015C123.153 500.138 123.278 500.291 123.37 500.464C123.461 500.636 123.517 500.825 123.534 501.02C123.551 501.215 123.529 501.411 123.469 501.597C123.365 501.908 123.167 502.178 122.903 502.371C122.71 502.516 122.486 502.615 122.249 502.661C122.013 502.707 121.769 502.699 121.536 502.637C118.708 501.936 104.623 501.995 99.4287 511.215Z" fill="#FAFAFA"/>
<path d="M123.038 492.882C122.845 493.027 122.622 493.126 122.385 493.172C122.148 493.218 121.904 493.21 121.671 493.148C119.125 492.467 106.61 492.479 100.751 500.147C100.443 499.407 100.311 498.605 100.365 497.805C100.418 497.005 100.657 496.228 101.061 495.536C107.266 491.014 115.002 489.118 122.594 490.258C122.784 490.309 122.962 490.399 123.117 490.52C123.271 490.642 123.4 490.794 123.494 490.967C123.588 491.14 123.647 491.33 123.666 491.526C123.685 491.722 123.664 491.92 123.604 492.108C123.492 492.414 123.295 492.682 123.038 492.882Z" fill="#FAFAFA"/>
<path d="M76.6495 481.594C76.6495 481.594 76.6042 509.937 76.3929 531.832C76.2254 547.72 64.5888 555.478 55.18 566.396C53.1192 568.787 48.4261 573.222 46.7698 575.068C46.3915 575.446 46.1004 575.902 45.9169 576.405C45.7334 576.908 45.6618 577.444 45.7073 577.978C45.7527 578.511 45.914 579.027 46.18 579.492C46.4459 579.956 46.81 580.357 47.2469 580.666C51.5754 584.632 69.6712 585.435 79.6876 577.922C89.7041 570.409 98.6255 554.482 104.617 548.437C106.849 546.153 108.969 543.844 110.944 541.4C112.919 538.955 112.292 536.785 112.437 534.143C112.398 532.853 112.294 529.377 112.294 529.377C113.565 523.137 117.366 503.969 119.261 497.935L76.6495 481.594Z" fill="#C8856A"/>
<path d="M116.283 557.514C116.413 559.034 116.288 560.565 115.914 562.043C114.921 564.458 105.849 569.782 102.397 571.654C97.6193 574.084 93.965 578.266 92.1972 583.326C88.4986 591.065 82.155 597.228 74.3116 600.701C63.6186 605.718 51.6702 607.426 39.9997 605.605C25.4342 603.686 23.8091 595.373 23.8091 595.373C23.8091 595.373 22.6486 587.579 26.1704 586.182C29.6922 584.785 116.283 557.514 116.283 557.514Z" fill="#263238"/>
<path d="M112.747 527.651C113.145 527.836 113.881 528.038 114.323 529.653C114.509 530.264 114.233 536.951 114.8 540.863C115.367 544.774 117.958 552.554 116.287 557.655C109.034 565.59 97.1799 567.995 91.7842 576.127C86.3885 584.259 81.5564 594.338 62.8334 598.802C44.1104 603.265 29.4717 597.981 25.6982 592.875C21.9246 587.769 24.8568 582.63 36.6309 575.709C49.1501 568.374 64.9907 547.384 65.0188 547.383C67.1784 544.412 69.1471 541.307 70.9126 538.086C72.3856 534.776 73.587 531.352 74.5051 527.848C74.9365 526.215 75.8755 524.762 77.1864 523.698C78.7251 522.938 80.4519 522.642 82.1559 522.847C84.8919 522.841 87.6202 523.136 90.292 523.725C92.9801 524.312 95.4004 525.768 97.1794 527.867C98.3761 529.403 99.0792 531.318 100.414 532.765C101.344 533.711 102.516 534.385 103.802 534.712C105.088 535.04 106.44 535.008 107.709 534.622C108.936 534.357 110.047 533.708 110.882 532.77C111.716 531.832 112.231 530.653 112.351 529.403C112.524 528.829 112.657 528.244 112.747 527.651Z" fill="black"/>
<path d="M74.8593 593.725C74.3667 589.406 72.7026 585.304 70.047 581.862C67.3913 578.421 63.8452 575.771 59.7922 574.199C45.1717 567.651 36.7344 572.619 32.5393 575.888C27.5489 579.771 20.5203 587.727 25.3124 593.111C30.5097 598.904 38.4705 601.414 53.0212 600.977C67.5719 600.539 74.8593 593.725 74.8593 593.725Z" fill="#FAFAFA"/>
<path d="M92.0806 549.6C91.8321 549.597 91.587 549.541 91.3614 549.436C91.1358 549.332 90.9348 549.181 90.7715 548.994C89.0227 546.829 78.2086 539.017 68.3418 542.176C67.7745 541.043 68.5521 539.841 70.5616 538.545C81.0159 537.193 91.2831 544.545 93.2688 547.123C93.3988 547.283 93.4939 547.469 93.5481 547.668C93.6023 547.868 93.6144 548.076 93.5836 548.28C93.5528 548.484 93.4797 548.68 93.3691 548.854C93.2585 549.029 93.1129 549.178 92.9413 549.293C92.6868 549.47 92.3897 549.576 92.0806 549.6Z" fill="#FAFAFA"/>
<path d="M62.9869 549.801C63.1183 549.038 63.4326 548.318 63.9028 547.703C64.3729 547.088 64.985 546.596 65.6868 546.268C73.7274 546.216 81.4608 549.354 87.1918 554.994C87.3224 555.15 87.4188 555.332 87.4748 555.528C87.5307 555.724 87.545 555.93 87.5167 556.132C87.4884 556.333 87.4181 556.527 87.3104 556.7C87.2027 556.873 87.06 557.021 86.8914 557.136C86.604 557.331 86.266 557.439 85.9186 557.446C85.6638 557.457 85.4102 557.408 85.1779 557.302C84.9457 557.197 84.7414 557.039 84.5815 556.84C82.8633 554.759 72.6785 547.349 62.9869 549.801Z" fill="#FAFAFA"/>
<path d="M47.9951 566.36C48.8727 564.467 50.3857 562.942 52.2711 562.05C56.393 561.885 60.5048 562.567 64.3528 564.054C68.2007 565.54 71.7031 567.8 74.6436 570.693C74.7742 570.85 74.8706 571.032 74.9265 571.228C74.9825 571.424 74.9968 571.629 74.9685 571.831C74.9402 572.033 74.8699 572.226 74.7622 572.399C74.6545 572.572 74.5118 572.721 74.3432 572.835C74.0558 573.03 73.7178 573.138 73.3704 573.145C73.1163 573.152 72.864 573.101 72.6324 572.996C72.4008 572.891 72.196 572.735 72.0333 572.54C70.3372 570.262 58.3779 561.698 47.9951 566.36Z" fill="#FAFAFA"/>
<path d="M79.7005 565.294C79.4458 565.304 79.1921 565.255 78.9598 565.15C78.7275 565.045 78.5233 564.887 78.3634 564.688C76.6443 562.579 66.0587 554.9 56.2676 557.776C56.4895 556.968 56.8897 556.22 57.4388 555.587C57.9879 554.953 58.672 554.451 59.4406 554.117C67.4891 554.066 75.2306 557.203 80.9737 562.842C81.1031 563 81.1978 563.184 81.2517 563.381C81.3055 563.578 81.3174 563.784 81.2864 563.986C81.2554 564.188 81.1823 564.382 81.0719 564.554C80.9615 564.726 80.8161 564.872 80.6453 564.984C80.3695 565.182 80.0397 565.29 79.7005 565.294Z" fill="#FAFAFA"/>
<path d="M132.639 264.482C132.639 264.482 76.1801 298.086 50.0237 327.832C40.6344 338.47 34.9343 347.677 46.4896 373.595C55.5085 393.556 70.1945 415.339 84.0445 441.047L198.827 292.152L132.639 264.482Z" fill="black"/>
<path opacity="0.4" d="M132.639 264.482C132.639 264.482 76.1801 298.086 50.0237 327.832C40.6344 338.47 34.9343 347.677 46.4896 373.595C55.5085 393.556 70.1945 415.339 84.0445 441.047L198.827 292.152L132.639 264.482Z" fill="black"/>
<path opacity="0.5" d="M82.1721 437.568C100.236 419.598 155.068 318.836 155.068 318.836C155.068 318.836 152.253 318.556 152.252 318.527C137.264 312.805 130.333 293.23 130.333 293.23C129.881 297.695 130.317 302.205 131.616 306.501C132.916 310.796 135.053 314.792 137.905 318.258C129.906 324.728 111.853 339.358 84.0875 362.249C79.2687 366.239 69.5097 373.912 70.8234 387.735C72.4948 405.981 73.9317 423.897 73.9317 423.897L82.1721 437.568Z" fill="#272727"/>
<path d="M132.555 264.484L253.283 276.848C253.968 291.223 250.96 315.306 240.912 332.024C233.588 344.17 225.228 351.718 195.366 369.257C167.544 385.611 142.588 399.298 136.248 403.109C131.454 406.059 132.877 416.961 132.006 430.007C131.099 443.701 129.982 451.339 123.88 480.762C120.915 495.079 117.751 507.437 117.751 507.437C117.751 507.437 94.0957 511.179 75.961 502.549C75.961 502.549 75.4619 430.923 75.5507 413.354C75.6313 398.31 73.9786 384.413 84.9076 372.72C94.2865 362.672 152.421 318.522 152.421 318.522C152.421 318.522 123.555 291.778 132.555 264.484Z" fill="black"/>
<path opacity="0.4" d="M132.555 264.484L253.283 276.848C253.968 291.223 250.96 315.306 240.912 332.024C233.588 344.17 225.228 351.718 195.366 369.257C167.544 385.611 142.588 399.298 136.248 403.109C131.454 406.059 132.877 416.961 132.006 430.007C131.099 443.701 129.982 451.339 123.88 480.762C120.915 495.079 117.751 507.437 117.751 507.437C117.751 507.437 94.0957 511.179 75.961 502.549C75.961 502.549 75.4619 430.923 75.5507 413.354C75.6313 398.31 73.9786 384.413 84.9076 372.72C94.2865 362.672 152.421 318.522 152.421 318.522C152.421 318.522 123.555 291.778 132.555 264.484Z" fill="black"/>
<path opacity="0.5" d="M239.068 275.395L237.407 275.22C237.661 294.856 235.649 310.069 222.075 325.266C212.729 319.598 214.323 313.826 217.241 303.552C218.101 300.439 219.09 296.93 219.897 292.977C221.242 286.622 221.987 280.154 222.122 273.66L220.434 273.486C220.309 279.935 219.562 286.357 218.204 292.663C217.423 296.531 216.433 300.012 215.572 303.097C212.681 313.342 210.783 320.218 220.878 326.509C217.443 330.143 213.735 333.509 209.788 336.58C189.311 352.686 160.195 371.745 142.835 383.268C136.754 387.267 131.825 390.418 129.462 392.088C119.405 399.182 119.326 403.085 120.493 420.42C121.541 435.654 113.488 486.996 109.099 508.062L110.809 508.01C115.214 486.523 123.165 435.549 122.203 420.34C120.999 402.726 121.416 399.795 130.457 393.434C132.902 391.704 137.69 388.558 143.773 384.615C161.164 373.175 190.304 354.003 210.865 337.866C236.115 318.109 239.399 300.416 239.068 275.395Z" fill="#4F4F4F"/>
<path d="M81.9968 241.452C90.8121 244.385 106.177 239.293 116.653 228.399C127.129 217.504 161.458 177.719 161.458 177.719L163.934 115.46C163.934 115.46 150.078 113.801 140.16 122.714C130.242 131.627 101.683 177.609 93.8162 190.333C85.9489 203.057 81.9968 241.452 81.9968 241.452Z" fill="#AF6152"/>
<path d="M164.773 115.351C153.094 114.243 143.409 113.187 129.578 132.882C116.869 150.69 100.839 177.522 100.839 177.522C101.343 186.457 104.841 194.961 110.769 201.665C120.982 213.733 129.474 216.171 129.474 216.171L162.532 178.921L164.773 115.351Z" fill="black"/>
<path d="M239.354 130.982C246.158 134.229 255.772 151.59 256.793 176.198C257.544 193.685 260.037 215.947 257.348 246.896C255.626 267.068 255.079 282.462 251.219 308.984C227.024 318.13 147.567 307.36 127.401 266.66C129.632 260.588 130.552 239.879 130.452 228.152C130.352 216.425 129.899 177.125 130.495 166.163C132.393 131.31 147.096 117.285 164.775 115.407C164.775 115.407 186.363 117.563 200.431 119.75C213.745 122.196 226.783 125.959 239.354 130.982Z" fill="#FAFAFA"/>
<path d="M239.354 130.983C242.547 133.024 245.17 135.842 246.98 139.172C248.89 142.472 250.479 145.948 251.726 149.552C254.201 156.763 255.746 164.261 256.326 171.863C257.008 187.079 258.197 202.337 258.178 217.575C258.183 225.208 257.935 232.82 257.434 240.411L255.596 263.253C254.482 278.467 252.946 293.639 250.706 308.719L251.03 308.316C245.606 310.038 239.966 310.982 234.278 311.121C228.527 311.355 222.767 311.21 217.035 310.686C205.563 309.699 194.218 307.568 183.17 304.325C172.066 301.235 161.425 296.676 151.53 290.769C141.593 284.972 133.439 276.559 127.956 266.447L127.97 266.924C128.938 263.506 129.557 260 129.816 256.457C130.188 252.966 130.42 249.48 130.595 245.967C130.974 238.968 131.098 231.921 130.973 224.966C130.804 210.94 130.663 196.913 130.661 182.883C130.732 175.893 130.604 168.854 131.267 161.959C131.808 155.015 133.185 148.161 135.367 141.547C137.475 134.906 141.199 128.893 146.205 124.047C151.342 119.333 157.873 116.418 164.813 115.743L183.794 117.978C190.102 118.742 196.462 119.337 202.746 120.214C215.261 122.64 227.518 126.246 239.354 130.983C227.53 126.17 215.281 122.48 202.767 119.961C196.45 118.944 190.118 118.321 183.806 117.472L164.821 115.069C161.306 115.468 157.865 116.366 154.602 117.733C151.349 119.182 148.364 121.169 145.771 123.611C140.666 128.524 136.858 134.626 134.688 141.371C129.956 154.758 129.909 169.071 129.795 182.993C129.681 196.915 129.825 211.054 129.938 225.081C130.148 232.062 129.912 239.112 129.53 246.027C129.327 249.513 129.067 253 128.722 256.462C128.45 259.9 127.838 263.302 126.895 266.619L126.902 266.872L126.909 267.096C132.46 277.443 140.748 286.066 150.866 292.023C160.819 298.054 171.54 302.716 182.739 305.881C193.888 309.089 205.324 311.198 216.883 312.178C222.663 312.668 228.469 312.794 234.265 312.553C240.108 312.402 245.899 311.415 251.462 309.622L251.743 309.614L251.733 309.305C253.944 294.17 255.423 278.972 256.508 263.73L258.262 240.892C258.725 233.282 258.945 225.652 258.92 218.002C258.937 202.708 257.61 187.482 256.758 172.243C256.115 164.632 254.493 157.135 251.934 149.938C250.649 146.333 249.022 142.858 247.076 139.562C245.294 136.077 242.632 133.12 239.354 130.983Z" fill="#E0E0E0"/>
<path d="M205.232 103.049C205.89 93.208 214.508 82.117 218.001 73.2287C221.494 64.3404 223.158 58.0888 221.947 50.4925C221.223 45.9964 217.735 40.1242 214.255 39.1906C214.757 36.3689 214.681 33.4746 214.031 30.6833C213.381 27.8919 212.172 25.2615 210.476 22.9513C208.779 20.6411 206.632 18.6992 204.163 17.2432C201.695 15.7873 198.956 14.8476 196.114 14.481C192.892 14.1572 189.696 13.6063 186.551 12.8325C182.757 11.6839 181.633 8.82734 178.423 6.62284C172.921 2.83168 164.302 3.59612 161.701 10.4372C157.876 6.42718 153.32 7.0132 148.157 8.88027C145.982 9.6183 144.168 11.1522 143.078 13.1737C141.988 15.1951 141.704 17.5542 142.283 19.7765C140.971 19.1116 139.523 18.7592 138.052 18.7471C136.581 18.7349 135.127 19.0632 133.804 19.7062C132.481 20.3493 131.324 21.2897 130.425 22.4539C129.526 23.6181 128.908 24.9745 128.62 26.4171C128.434 29.5376 129.35 32.0075 127.64 34.8651C125.93 37.7226 121.409 38.5602 119.851 36.1938C119.563 40.6361 121.594 43.774 126.314 43.0427C125.63 44.3316 125.24 45.7562 125.172 47.2139C125.105 48.6716 125.361 50.1261 125.923 51.473C126.672 53.1483 127.912 54.5568 129.479 55.5119C131.046 56.4669 132.866 56.9235 134.698 56.8212C135.047 59.2624 136.042 61.566 137.58 63.4933C139.118 65.4206 141.143 66.9015 143.446 67.7827C150.932 70.3636 158.97 70.7672 166.824 71.5973L176.141 72.5517C176.702 72.5349 179.478 72.4513 179.857 72.945L205.232 103.049Z" fill="black"/>
<path d="M215.68 89.3498C214.126 90.7248 212.163 91.5502 210.093 91.6987C208.023 91.8472 205.962 91.3105 204.228 90.1714L207.993 122.048C204.069 136.197 180.948 140.933 171.99 137.92C163.032 134.906 163.663 129.752 168.411 121.555L167.274 116.398C163.434 116.853 159.571 117.073 155.704 117.055C148.007 116.781 141.666 111.219 138.675 103.2C135.183 92.7472 133.746 81.7178 134.443 70.7195C134.685 68.0331 134.547 65.326 134.033 62.6782C132.893 56.9301 133.109 50.9957 134.662 45.3454C142.347 37.7621 161.413 33.5125 180.573 42.6453C179.555 53.5638 184.596 61.6342 192.806 64.951C192.75 67.7588 193.114 75.2122 197.866 74.5922C201.304 74.1521 201.09 69.837 204.221 65.702C207.352 61.567 215.463 59.7515 219.211 64.9424C221.694 68.7435 222.705 73.3197 222.055 77.813C221.405 82.3063 219.138 86.4082 215.68 89.3498Z" fill="#C8856A"/>
<path d="M182.144 60.3327L205.582 64.2858C204.267 65.3369 203.261 66.7248 202.672 68.302L182.305 65.6876L182.144 60.3327Z" fill="#263238"/>
<path d="M128.519 59.4207L130.005 59.376C135.087 58.7365 140.241 58.9899 145.236 60.1244C150.252 61.7414 152.184 63.4512 154.879 63.5104C157.575 63.5696 159.348 61.8887 164.299 60.4209C169.645 59.449 175.116 59.3793 180.484 60.2146L182.146 60.4171C182.741 60.6187 183.268 60.9813 183.669 61.4647C184.07 61.948 184.329 62.5332 184.417 63.155C184.42 64.3167 184.051 65.4488 183.364 66.3857C183.187 66.7993 183.078 67.2383 183.038 67.6863C183.117 70.7321 182.937 73.7792 182.498 76.7944C182.195 77.9897 181.656 79.1124 180.914 80.0972C180.625 80.4429 180.306 80.7624 179.961 81.0519C179.791 81.2128 179.607 81.3591 179.413 81.4893C178.885 81.8632 178.308 82.1638 177.7 82.3827L177.391 82.392L176.919 82.5465L176.414 82.5617C175.882 82.6896 175.34 82.7716 174.794 82.8068L173.224 82.8541C170.71 82.9264 168.225 82.2989 166.047 81.0415C163.868 79.784 162.082 77.9461 160.887 75.7328C158.734 72.2338 158.532 67.3852 155.415 67.3387L154.855 67.3555C152.653 67.8707 153.489 72.3354 152.464 75.5653C152.086 76.8387 151.486 78.0349 150.69 79.0982C150.552 79.293 150.398 79.476 150.229 79.6453L149.985 79.9052L149.711 80.1379L149.465 80.3698L149.191 80.5745L148.971 80.7214L148.831 80.7256C148.041 81.2392 147.17 81.6164 146.255 81.8414L146.002 81.849C144.929 82.0953 143.828 82.1945 142.728 82.1439C140.557 82.1592 138.429 81.5444 136.6 80.3741C134.772 79.2039 133.323 77.5283 132.427 75.5507C131.239 72.5786 130.274 69.5215 129.543 66.4052C129.407 65.9553 129.174 65.5407 128.861 65.191C127.989 64.2636 127.383 63.1188 127.105 61.8765C126.904 60.7881 127.679 59.502 128.519 59.4207ZM162.228 72.718C162.83 74.5551 163.839 76.2324 165.181 77.624C166.226 78.6097 167.457 79.377 168.802 79.881C170.147 80.385 171.579 80.6156 173.015 80.5594C174.329 80.6921 175.652 80.4355 176.821 79.8215C177.99 79.2076 178.953 78.2634 179.59 77.1064C179.662 76.9983 179.724 76.8837 179.776 76.7641L179.934 76.4226C179.926 76.32 179.923 76.2171 179.924 76.1142L179.915 75.8058L179.908 75.5815L179.902 75.3853L179.892 75.0488C179.882 74.7124 180.04 74.3709 180.087 74.0608C180.092 73.855 180.086 73.6491 180.069 73.444C180.058 73.1076 180.048 72.7711 180.039 72.4627L180.028 72.0983C180.153 69.7093 180.039 64.9984 178.716 63.9438C175.882 62.2578 172.548 61.6138 169.289 62.1228L168.756 62.1388C167.999 62.1616 167.276 62.3518 166.551 62.5139L165.688 62.7362C164.971 62.9225 164.266 63.1498 163.575 63.4171L162.939 63.7169C162.695 63.8078 162.463 63.9278 162.248 64.0744L161.996 64.082C161.462 64.3794 161.003 64.7966 160.658 65.3008C160.328 67.8796 160.881 70.4941 162.228 72.718ZM132.801 71.1899C133.158 72.8122 133.838 74.3461 134.799 75.7007C135.761 77.0553 136.985 78.2028 138.398 79.0752C139.607 79.6604 140.928 79.975 142.27 79.9969C143.68 80.2067 145.121 79.9784 146.396 79.3427C147.672 78.7071 148.722 77.6949 149.403 76.4431C149.454 76.3708 149.499 76.2943 149.537 76.2146L149.529 75.9622L149.686 75.5646L149.84 75.111C149.84 75.111 149.836 74.9708 149.835 74.9148C149.835 74.9148 149.835 74.9148 149.829 74.7466L149.825 74.6064C149.955 74.0124 150.04 73.4095 150.08 72.8028C150.454 70.3298 150.085 67.8016 149.019 65.5387C146.608 63.4934 143.636 62.2234 140.491 61.8947C139.737 61.7755 138.975 61.7046 138.212 61.6827L135.576 61.7619L134.46 61.9639L134.208 61.9715L133.955 61.9791L133.675 61.9875L133.367 61.9968L132.84 62.2091C132.414 62.3959 132.023 62.6544 131.684 62.9734C130.932 64.0905 132.027 68.7718 132.773 71.1907L132.801 71.1899Z" fill="#37474F"/>
<path d="M143.842 84.6638L155.885 89.4648L158.098 69.7552C157.441 68.4561 156.657 67.5537 155.224 67.5126L154.663 67.5294L154.275 67.6814C154.085 67.8836 153.894 68.0577 153.731 68.259C152.398 69.7723 151.208 71.405 150.174 73.1365C149.077 74.9093 147.929 76.88 146.838 78.8491C146.199 79.9908 145.588 81.1317 144.977 82.2725L143.842 84.6638Z" fill="#AF6152"/>
<path d="M161.531 96.198C161.55 96.8301 161.756 97.4424 162.123 97.9574C162.49 98.4725 163.002 98.8671 163.593 99.0914C164.184 99.3158 164.829 99.3597 165.445 99.2178C166.061 99.0758 166.622 98.7542 167.055 98.2938C167.489 97.8334 167.776 97.2547 167.881 96.631C167.985 96.0073 167.903 95.3666 167.643 94.7899C167.384 94.2131 166.959 93.7263 166.423 93.3909C165.887 93.0556 165.263 92.8867 164.631 92.9057C163.783 92.9312 162.981 93.2924 162.399 93.9098C161.818 94.5272 161.506 95.3503 161.531 96.198Z" fill="#AF6152"/>
<path d="M167.299 116.313C179.203 113.682 188.226 111.418 193.613 102.052C196.07 97.35 198.018 92.3998 199.427 87.2852C199.295 93.5563 198.165 99.7664 196.079 105.682C193.619 111.565 186.941 117.181 168.219 120.775L167.299 116.313Z" fill="#AF6152"/>
<path d="M166.896 71.2023C166.906 71.6587 167.008 72.1085 167.194 72.5252C167.38 72.9419 167.648 73.3171 167.982 73.6287C168.316 73.9403 168.708 74.182 169.137 74.3395C169.565 74.4971 170.021 74.5673 170.477 74.5461C171.182 74.5359 171.867 74.3152 172.446 73.9123C173.024 73.5094 173.469 72.9427 173.723 72.2851C173.976 71.6275 174.028 70.909 173.87 70.2219C173.713 69.5349 173.353 68.9107 172.838 68.4296C172.323 67.9484 171.675 67.6323 170.979 67.5218C170.283 67.4114 169.57 67.5117 168.931 67.8098C168.292 68.1079 167.757 68.5902 167.395 69.1947C167.032 69.7993 166.859 70.4984 166.896 71.2023Z" fill="#263238"/>
<path d="M172.531 53.2978L165.709 48.5362C165.083 49.4734 164.846 50.6171 165.047 51.7261C165.247 52.8352 165.871 53.8228 166.786 54.4809C167.238 54.7912 167.747 55.0072 168.284 55.1158C168.821 55.2245 169.374 55.2235 169.911 55.113C170.447 55.0025 170.956 54.7848 171.406 54.4728C171.857 54.1609 172.239 53.7613 172.531 53.2978Z" fill="#263238"/>
<path d="M146.061 48.3696L139.512 53.5897C139.828 54.0349 140.232 54.4109 140.699 54.6946C141.165 54.9782 141.685 55.1636 142.226 55.2393C142.767 55.3149 143.318 55.2794 143.844 55.1347C144.371 54.99 144.862 54.7394 145.289 54.398C146.167 53.6849 146.738 52.661 146.882 51.5385C147.026 50.4161 146.732 49.2813 146.061 48.3696Z" fill="#263238"/>
<path d="M140.409 71.2975C140.532 71.951 140.844 72.554 141.307 73.0317C141.769 73.5094 142.362 73.8407 143.011 73.9844C143.661 74.1281 144.338 74.0779 144.959 73.8401C145.58 73.6023 146.117 73.1873 146.504 72.6467C146.891 72.106 147.111 71.4636 147.136 70.7991C147.161 70.1346 146.991 69.4773 146.646 68.909C146.301 68.3406 145.796 67.8862 145.195 67.6021C144.594 67.318 143.922 67.2168 143.264 67.311C142.358 67.4639 141.549 67.9688 141.015 68.7157C140.48 69.4626 140.262 70.3907 140.409 71.2975Z" fill="#263238"/>
<path d="M26.5088 318.522L26.556 320.092C26.5943 321.223 26.9242 322.324 27.5138 323.29C28.1034 324.255 28.9326 325.052 29.9208 325.603L144.835 388.175C145.828 388.722 146.952 388.989 148.085 388.947C149.223 388.913 150.333 388.59 151.312 388.008L212.213 350.959C213.184 350.362 213.983 349.521 214.528 348.52C215.074 347.519 215.349 346.393 215.325 345.253L215.26 343.094C215.268 343.235 215.237 343.376 215.172 343.502C215.107 343.627 215.009 343.732 214.888 343.807L148.04 384.655L26.5088 318.522Z" fill="#37474F"/>
<path d="M148.04 384.655L148.173 389.085C147.041 389.113 145.921 388.847 144.923 388.312L30.0092 325.741C29.0173 325.194 28.1852 324.399 27.595 323.432C27.0049 322.465 26.6772 321.362 26.6444 320.23L26.5972 318.66L148.04 384.655Z" fill="#263238"/>
<path d="M214.714 343.616C214.804 343.564 214.879 343.489 214.93 343.398C214.982 343.308 215.008 343.206 215.007 343.102C215.007 342.993 214.976 342.887 214.919 342.794C214.862 342.702 214.78 342.627 214.683 342.578L96.4876 278.197C95.8988 277.878 95.2351 277.724 94.566 277.75C93.9773 277.797 93.407 277.977 92.8982 278.277L27.0696 318.505L148.032 384.375L214.714 343.616Z" fill="#455A64"/>
<path d="M94.5736 278.002C94.0229 278.042 93.4896 278.212 93.017 278.498L27.5741 318.49L148.023 384.094L214.595 343.395C214.646 343.36 214.687 343.313 214.715 343.258C214.743 343.203 214.756 343.142 214.754 343.081C214.751 343.024 214.733 342.969 214.702 342.92C214.671 342.872 214.628 342.833 214.578 342.806L96.3813 278.397C95.8259 278.099 95.2022 277.954 94.5727 277.974M94.5575 277.469C95.2744 277.444 95.9853 277.607 96.6202 277.94L214.816 342.322C214.946 342.395 215.054 342.501 215.131 342.629C215.209 342.757 215.252 342.903 215.256 343.052C215.261 343.201 215.226 343.349 215.157 343.482C215.088 343.614 214.986 343.726 214.86 343.807L148.039 384.627L26.5088 318.522L92.6391 278.06C93.1916 277.74 93.8093 277.549 94.4462 277.501L94.5575 277.469Z" fill="#37474F"/>
<path d="M148.514 378.944L184.226 357.161L76.7577 298.63L40.8746 320.335L148.514 378.944Z" fill="#37474F"/>
<path d="M40.8746 320.335L42.272 321.079L76.8057 300.228L182.848 357.988L184.198 357.162L76.7857 298.629L40.8746 320.335Z" fill="#263238"/>
<path d="M164.88 320.393L164.218 320.777L146.721 331.49L114.684 314.045L114.027 313.672L132.158 302.576L164.88 320.393Z" fill="#263238"/>
<path d="M164.218 320.777L146.721 331.49L114.684 314.046L132.18 303.333L164.218 320.777Z" fill="#37474F"/>
<path d="M295.388 244.629C287.385 216.472 279.7 189.54 272.045 168.303C267.821 156.588 265.427 140.44 239.885 132.79C224.577 145.373 231.519 178.361 234.348 186.61L252.933 251.238C252.933 251.238 248.616 256.98 234.085 272.066C221.734 284.981 215.703 289.736 201.025 292.479C186.347 295.221 185.169 294.302 177.736 298.146C173.813 300.2 164.808 304.933 161.747 306.737C158.687 308.541 153.427 314.676 148.447 318.895C143.467 323.113 150.087 324.907 153.862 323.53C157.8 321.895 161.509 319.756 164.895 317.165C167.975 315.435 171.186 313.95 174.499 312.723C173.685 316.557 173.247 320.461 173.194 324.38C173.257 326.483 173.054 329.07 174.977 330.5C176.409 331.219 177.937 331.731 179.513 332.019C179.602 332.774 179.962 333.471 180.526 333.981C181.662 334.686 183.023 334.936 184.335 334.68C185.051 334.574 185.759 334.422 186.454 334.223C186.601 334.884 186.917 335.495 187.369 335.997C187.822 336.5 188.397 336.877 189.038 337.092C192.007 337.821 195.118 337.727 198.038 336.821C198.452 336.612 201.674 334.579 202.635 333.877C203.841 333.353 204.919 332.574 205.794 331.593C206.433 330.451 204.228 328.048 202.484 327.904C200.591 327.841 198.702 328.097 196.894 328.662C197.56 327.05 198.009 325.357 198.23 323.627C199.61 321.003 211.029 322.793 220.89 320.363C228.355 318.539 233.499 311.341 236.607 309.255C251.797 299.523 266.377 288.87 280.265 277.355C299.114 262.168 299.743 259.764 295.388 244.629Z" fill="#C8856A"/>
<path d="M177.472 306.151C176.262 308.205 175.337 310.413 174.723 312.716L172.839 313.503C173.789 310.584 175.339 307.085 177.472 306.151ZM184.157 308.223C183.502 309.004 182.987 309.893 182.636 310.851C182.232 311.767 181.904 312.716 181.655 313.686C181.189 315.663 180.865 317.67 180.686 319.693C180.439 321.748 180.247 323.775 180.028 325.83C179.817 327.874 179.72 329.929 179.736 331.984C179.255 329.95 179.051 327.861 179.129 325.773C179.141 323.696 179.266 321.622 179.503 319.56C179.693 317.475 180.121 315.42 180.778 313.432C181.392 311.413 182.563 309.607 184.157 308.223ZM188.011 316.021C188.423 314.015 189.332 312.145 190.654 310.581C190.097 311.452 189.698 312.414 189.477 313.423C189.225 314.385 189.002 315.374 188.804 316.249C188.443 318.225 188.109 320.199 187.833 322.2C187.279 326.173 186.781 330.144 186.567 334.22C186.207 332.206 186.07 330.159 186.158 328.115C186.195 326.072 186.359 324.033 186.648 322.011C186.965 319.985 187.42 317.984 188.011 316.021ZM202.711 327.982C201.855 328.047 201.011 328.223 200.201 328.506C199.534 328.723 199.011 329.075 198.264 329.406C198.287 329.639 198.294 329.873 198.285 330.107C198.186 330.47 198.014 330.809 197.782 331.104C197.36 331.661 196.789 332.087 196.135 332.333C196.497 331.821 196.809 331.276 197.068 330.705C197.157 330.438 197.224 330.163 197.268 329.885C197.29 329.652 197.283 329.416 197.247 329.184L197.233 328.736L197.703 328.497C198.44 328.147 199.23 327.924 200.04 327.837C200.927 327.643 201.85 327.693 202.711 327.982Z" fill="#AF6152"/>
<path d="M239.354 130.982C252.57 135.636 263.221 138.935 269.776 157.231C277.768 179.439 287.742 213.402 287.742 213.402C287.742 213.402 284.306 222.317 268.141 226.928C251.976 231.54 244.534 227.639 244.534 227.639C244.534 227.639 235.492 199.428 231.968 187.692C228.444 175.956 221.998 141.719 239.354 130.982Z" fill="#37474F"/>
<path d="M146.218 385.664C145.162 386.103 144.021 386.301 142.878 386.243C141.736 386.185 140.62 385.873 139.614 385.329L25.213 323.023C24.2225 322.48 23.3632 321.727 22.6958 320.816C22.0283 319.905 21.5691 318.859 21.3504 317.751L7.16245 244.433C7.12195 244.013 7.10927 243.592 7.12449 243.171C7.09637 242.157 7.27072 241.148 7.63737 240.202C8.00402 239.256 8.55563 238.393 9.25985 237.663L128.056 302.419C128.805 302.807 129.456 303.359 129.963 304.033C130.469 304.708 130.816 305.488 130.979 306.315L146.218 385.664Z" fill="#263238"/>
<path d="M148.04 384.655L147.268 385.127C146.933 385.333 146.582 385.513 146.218 385.664L130.895 306.318C130.732 305.49 130.385 304.71 129.878 304.035C129.372 303.361 128.72 302.809 127.972 302.421L9.09161 237.667C9.54674 237.193 10.0628 236.781 10.6262 236.443L129.818 301.299C130.56 301.697 131.205 302.251 131.71 302.924C132.215 303.597 132.567 304.373 132.741 305.196L148.04 384.655Z" fill="#455A64"/>
<path d="M129.756 303.883L131.547 302.791C132.108 303.494 132.497 304.318 132.685 305.198L148.04 384.655L147.269 385.127C146.933 385.334 146.582 385.513 146.218 385.664L130.895 306.318C130.718 305.426 130.327 304.59 129.756 303.883Z" fill="#37474F"/>
<path d="M81.0273 319.295C79.1224 313.195 74.9505 308.058 69.371 304.942C63.8367 301.937 60.1509 303.479 61.0554 308.363C62.9604 314.463 67.1323 319.6 72.7118 322.717C78.2742 325.72 81.988 324.177 81.0273 319.295Z" fill="black"/>
<path d="M79.2761 239.625C75.9262 235.545 71.3057 226.536 73.8681 210.969C75.5533 200.76 84.5242 192.072 94.0275 180.561C106.215 165.939 113.943 159.786 113.219 145.973C112.641 135.159 111.793 134.006 114.633 126.737C116.144 122.875 119.695 114.041 121.091 111.024C122.488 108.008 127.651 102.409 131.094 97.4505C134.537 92.4923 136.735 98.4033 135.918 102.048C134.801 105.896 133.175 109.578 131.085 112.997C129.778 116.038 128.709 119.175 127.887 122.381C131.368 121.242 134.954 120.458 138.592 120.039C140.583 119.979 142.952 119.431 144.461 121.097C145.278 122.355 145.905 123.726 146.323 125.166C147.037 125.176 147.723 125.444 148.254 125.922C149.024 126.909 149.392 128.151 149.285 129.398C149.242 130.069 149.159 130.737 149.036 131.398C149.656 131.48 150.246 131.718 150.748 132.091C151.25 132.464 151.649 132.959 151.907 133.529C152.856 136.225 153.059 139.127 152.496 141.93C152.34 142.355 150.781 145.545 150.332 146.484C149.883 147.424 149.342 149.04 148.49 149.627C147.638 150.214 145.062 148.523 144.733 146.934C144.495 145.149 144.545 143.338 144.88 141.569C143.452 142.357 141.921 142.942 140.331 143.306C138.048 144.862 141.488 148.21 140.228 157.62C139.236 164.749 133.287 169.418 131.64 172.499C121.627 191.32 119.731 210.375 107.821 225.83C103.126 232.089 85.1068 246.886 79.2761 239.625Z" fill="#C8856A"/>
<path d="M128.453 120.653C128.275 121.275 128.096 121.87 127.891 122.493C125.802 123.277 123.832 124.347 122.037 125.672C122.705 123.604 125.822 121.826 128.453 120.653ZM129.152 128.04C130.927 127.229 132.794 126.636 134.711 126.273C136.608 125.842 138.529 125.522 140.463 125.314C142.397 125.036 144.361 125.024 146.299 125.279C144.421 125.46 142.556 125.75 140.712 126.149C138.816 126.542 136.947 126.907 135.136 127.355C133.25 127.719 131.39 128.206 129.568 128.813C128.68 129.144 127.819 129.545 126.994 130.013C126.136 130.434 125.356 130.998 124.687 131.682C125.82 130.088 127.363 128.829 129.152 128.04ZM137.713 132.777C139.551 132.314 141.414 131.959 143.293 131.711C145.152 131.467 147.03 131.41 148.9 131.543C145.158 132.132 141.508 133 137.747 133.899C135.936 134.346 134.127 134.849 132.319 135.381C131.422 135.633 130.54 135.94 129.681 136.302C128.788 136.588 127.962 137.052 127.253 137.666C128.539 136.22 130.195 135.152 132.042 134.575C133.883 133.83 135.779 133.229 137.713 132.777ZM144.403 144.362C144.404 143.594 144.533 142.831 144.784 142.105L144.939 141.652L145.388 141.638C145.602 141.672 145.821 141.665 146.032 141.619C146.29 141.562 146.542 141.479 146.783 141.372C147.287 141.072 147.765 140.729 148.211 140.347C148.048 140.975 147.704 141.542 147.222 141.976C146.973 142.218 146.685 142.416 146.37 142.563L145.701 142.723C145.45 143.344 145.235 143.978 145.056 144.623C144.864 145.396 144.774 146.191 144.791 146.988C144.413 146.168 144.278 145.256 144.403 144.362Z" fill="#AF6152"/>
</svg>
