<svg width="185" height="515" viewBox="0 0 185 515" fill="none" xmlns="http://www.w3.org/2000/svg">
<path d="M151.577 485.402L137.822 487.821L132.178 469.063L127.031 451.845L142.897 446.296L147.498 466.999L151.577 485.402Z" fill="#B16668"/>
<path d="M134.715 487.442C134.478 485.924 153.331 483.813 153.331 483.813C153.331 483.813 166.849 493.466 178.469 494.106C190.09 494.746 185.015 502.548 172.564 504.754L141.734 510.185C132.912 511.774 137.11 503.26 134.715 487.442Z" fill="black"/>
<path d="M162.581 486.991C160.299 486.891 158.038 486.517 155.845 485.877C155.791 485.89 155.734 485.89 155.679 485.877L155.537 485.735C155.537 485.735 155.537 485.735 155.537 485.616C155.513 485.539 155.513 485.456 155.537 485.379C155.537 485.165 156.367 480.636 158.691 479.071C159.039 478.848 159.43 478.701 159.839 478.64C160.248 478.579 160.665 478.604 161.063 478.715C161.964 478.952 162.486 479.403 162.557 480.067C162.628 480.731 161.513 482.272 160.185 483.339C161.556 482.857 163.032 482.759 164.454 483.055C164.722 483.14 164.968 483.281 165.177 483.469C165.386 483.657 165.551 483.888 165.663 484.146C165.875 484.448 165.988 484.808 165.988 485.177C165.988 485.546 165.875 485.906 165.663 486.209C165.232 486.547 164.735 486.791 164.205 486.925C163.674 487.06 163.121 487.083 162.581 486.991ZM157.482 485.26C160.446 485.948 164.027 486.375 164.786 485.497C164.786 485.497 165.047 485.189 164.786 484.478C164.722 484.348 164.632 484.233 164.522 484.139C164.412 484.045 164.284 483.975 164.146 483.932C161.844 483.742 159.535 484.202 157.482 485.26ZM160.233 479.521C159.862 479.52 159.5 479.627 159.189 479.829C157.941 481.071 157.112 482.671 156.818 484.406C159.403 482.865 161.798 480.944 161.703 480.114C161.703 479.829 161.205 479.663 160.92 479.592L160.233 479.521Z" fill="white"/>
<path opacity="0.2" d="M147.569 467.426L132.248 469.442L127.055 452.035L142.897 446.391L147.569 467.426Z" fill="black"/>
<path d="M59.7036 491.307H45.7116L43.435 471.837L41.348 453.98L57.9487 451.276L58.8736 472.478L59.7036 491.307Z" fill="#B16668"/>
<path d="M42.7234 490.406C42.7234 488.865 61.6956 490.074 61.6956 490.074C61.6956 490.074 73.3398 501.932 84.652 504.564C95.9641 507.197 89.6321 514.05 76.9919 514.05H45.6167C36.7472 514.027 42.344 506.414 42.7234 490.406Z" fill="black"/>
<path d="M71.7036 494.912C68.9691 494.584 66.3129 493.781 63.8538 492.541C63.783 492.515 63.7239 492.465 63.6878 492.398C63.6402 492.276 63.6402 492.141 63.6878 492.019C63.6878 491.829 65.3479 487.418 67.9091 486.351C68.282 486.184 68.6861 486.097 69.0949 486.097C69.5037 486.097 69.9078 486.184 70.2806 486.351C71.1344 486.778 71.5613 487.3 71.5138 487.94C71.5138 488.936 70.1146 489.956 68.5731 490.762C70.0046 490.517 71.4761 490.682 72.8182 491.236C73.0657 491.37 73.2836 491.552 73.4589 491.773C73.6341 491.993 73.763 492.246 73.8379 492.517C73.9757 492.861 74.0041 493.239 73.9192 493.6C73.8343 493.961 73.6403 494.286 73.3636 494.533C72.8669 494.838 72.2836 494.971 71.7036 494.912ZM65.5376 492.185C68.336 493.371 71.7984 494.414 72.6522 493.679C72.6522 493.679 72.9605 493.418 72.7708 492.683C72.7308 492.541 72.6617 492.408 72.5678 492.294C72.4739 492.179 72.3573 492.086 72.2253 492.019C70.0219 491.47 67.7111 491.528 65.5376 492.185ZM68.9289 486.991C68.6692 486.991 68.4117 487.039 68.17 487.134C66.6803 488.113 65.5421 489.542 64.921 491.213C67.7194 490.146 70.4229 488.675 70.4704 487.821C70.4704 487.561 70.0672 487.323 69.8064 487.181C69.5286 487.063 69.2308 486.998 68.9289 486.991Z" fill="white"/>
<path opacity="0.2" d="M58.8736 472.904L43.435 472.217L41.348 454.169L57.9487 451.371L58.8736 472.904Z" fill="black"/>
<path d="M148.54 454.398L126.016 457.555C103.28 411.063 87.1066 372.319 75.7028 340.123C69.5406 322.688 64.7477 307.326 61.0645 293.63L62.1034 344.21V459.124H39.2251C-16.4241 241.403 23.0049 191.637 23.0049 191.637L89.5856 182.299C92.2159 192.384 94.0769 202.593 95.1576 212.868L98.1561 230.942L124.127 341.188L148.54 454.398Z" fill="white"/>
<path opacity="0.6" d="M148.54 454.398L126.016 457.555C103.28 411.063 87.1066 372.319 75.7028 340.123C69.5406 322.688 64.7477 307.326 61.0645 293.63L62.1034 344.21V459.124H39.2251C-16.4241 241.403 23.0049 191.637 23.0049 191.637L89.5856 182.299C92.2159 192.384 94.0769 202.593 95.1576 212.868L98.1561 230.942L124.127 341.188L148.54 454.398Z" fill="white"/>
<path d="M122.691 457.703L150.77 448.383L150.391 460.335L127.173 467.734L122.691 457.703Z" fill="white"/>
<path d="M36.0834 458.984L65.3243 454.715L62.8816 466.406L38.7395 469.655L36.0834 458.984Z" fill="white"/>
<path d="M22.8026 183.631V193.615L90.9839 188.374V176.588L22.8026 183.631Z" fill="black"/>
<path d="M75.2322 178.983L60.3276 180.318L61.3414 191.633L76.246 190.297L75.2322 178.983Z" fill="white"/>
<path d="M45.6382 179.458L42.2513 179.631L43.1296 196.849L46.5165 196.677L45.6382 179.458Z" fill="white"/>
<path opacity="0.6" d="M45.6382 179.458L42.2513 179.631L43.1296 196.849L46.5165 196.677L45.6382 179.458Z" fill="white"/>
<path d="M87.3034 174.875L83.9165 175.048L84.7948 192.266L88.1816 192.094L87.3034 174.875Z" fill="white"/>
<path opacity="0.6" d="M87.3034 174.875L83.9165 175.048L84.7948 192.266L88.1816 192.094L87.3034 174.875Z" fill="white"/>
<path opacity="0.2" d="M75.7112 375.393C69.5216 354.049 64.7074 335.243 61.0078 318.476C61.3295 298.648 62.7705 278.854 65.324 259.188C65.324 259.188 75.1184 335.693 75.7112 375.393Z" fill="black"/>
<path d="M5.30109 43.3794C7.26945 56.4702 12.6291 70.8416 6.62913 83.6953C0.629181 96.5489 1.19837 122.233 29.2535 124.201C57.3086 126.169 74.3124 110.612 75.2847 92.9679C76.257 75.3238 67.6959 71.0314 68.597 60.0986C69.4982 49.1659 72.6049 37.7352 66.2255 21.2294C59.8461 4.72358 5.30109 43.3794 5.30109 43.3794Z" fill="black"/>
<path d="M15.7357 11.7196C15.7357 11.7196 21.4985 -6.13795 46.8501 2.23353C74.0277 11.1979 77.5376 54.1936 46.1623 65.8615C15.3325 77.2922 3.47491 51.0395 4.32866 33.0633C5.44328 10.439 15.7357 11.7196 15.7357 11.7196Z" fill="black"/>
<path d="M90.6756 176.564L22.7077 184.153C22.7077 184.153 19.4588 163.853 14.3837 143.837C12.7711 137.339 10.7315 130.106 8.12287 121.711C6.71577 117.236 5.13475 112.414 3.37983 107.244C2.7158 105.229 2.00433 103.165 1.29288 101.031C1.01244 100.207 0.903134 99.3337 0.971611 98.4656C1.04009 97.5974 1.28492 96.7524 1.69115 95.9821C2.09737 95.2119 2.65643 94.5326 3.33416 93.9858C4.01189 93.4389 4.79403 93.0361 5.63277 92.8019C7.34026 92.3276 9.09519 91.8533 10.8027 91.4264L11.3956 91.2604L16.2809 90.1221H16.4943C17.8698 89.8138 19.2216 89.5055 20.5734 89.2446L22.6129 88.8414H22.9923L27.2848 88.0826L28.0911 87.964L33.3559 87.0865C35.0871 86.8256 36.842 86.5885 38.5969 86.3751L43.8854 85.7822H44.004C47.917 85.4028 51.8538 85.1182 55.8616 84.9521H57.7351C62.0987 84.9521 66.6995 84.9522 70.8971 85.2605H71.0631L74.9524 85.4976C77.5373 85.4976 79.814 85.7822 81.6401 85.9482L86.0037 86.3039C86.0037 86.3039 86.0037 86.3039 86.2408 86.4462C86.7863 86.9917 88.4226 89.458 89.5373 100.818C91.0313 113.719 93.474 128.754 90.6756 176.564Z" fill="black"/>
<path opacity="0.4" d="M91.7429 154.841C91.5531 161.22 91.2211 168.43 90.7705 176.611L22.8027 184.2C22.8027 184.2 19.5537 163.9 14.4787 143.884C12.866 137.386 10.8265 130.153 8.21784 121.758C6.81074 117.284 5.22972 112.462 3.4748 107.292C2.81077 105.276 2.0993 103.213 1.38785 101.078C1.10742 100.254 0.998104 99.381 1.06658 98.5129C1.13506 97.6448 1.37989 96.7998 1.78612 96.0295C2.19234 95.2592 2.7514 94.5799 3.42913 94.0331C4.10686 93.4863 4.88901 93.0835 5.72774 92.8492C7.43523 92.3749 9.19016 91.9006 10.8977 91.4738L11.4905 91.3078L16.3759 90.1694H16.5893C17.9648 89.8611 19.3166 89.5528 20.6683 89.292L22.7078 88.8888H23.0873L27.3797 88.1299L28.186 88.0114L33.4508 87.1339C35.182 86.873 36.937 86.6358 38.6919 86.4224L43.9804 85.8295H44.099C45.8539 85.6635 47.6088 85.5212 49.3875 85.4027C51.1661 85.2841 52.4704 85.1892 54.1305 85.1181L55.9803 84.9995H57.8538H62.2174C65.2292 84.9995 68.2174 85.1418 71.0158 85.2604H71.1818L75.0711 85.4975C77.6323 85.6398 79.9327 85.8058 81.7588 85.9481L86.1224 86.3276C86.2102 86.3584 86.2909 86.4068 86.3595 86.4698C86.905 87.0153 88.5413 89.4817 89.656 100.841C89.9405 104.114 90.3437 107.458 90.6994 111.442C91.9444 125.873 92.2929 140.367 91.7429 154.841Z" fill="white"/>
<path d="M49.7196 99.1812C33.9015 97.1417 29.1348 90.3829 29.1348 90.3829C39.19 80.8968 30.8423 64.4858 30.8423 64.4858L49.8144 68.0431C49.375 70.6936 49.1293 73.3727 49.0793 76.0589C48.937 87.6319 54.1543 87.7505 54.1543 87.7505C57.4745 94.0113 49.7196 99.1812 49.7196 99.1812Z" fill="#B16668"/>
<path opacity="0.2" d="M49.8855 68.0431C49.4461 70.6936 49.2003 73.3727 49.1503 76.0589C36.273 76.0589 30.8422 64.4858 30.8422 64.4858L49.8855 68.0431Z" fill="black"/>
<path d="M30.2019 79.4741C30.2019 79.4741 48.1306 84.2172 59.0396 79.4741C59.0396 79.4741 60.6522 90.2171 64.6364 93.0867C64.6364 93.0867 56.7392 102.241 48.51 103.094C40.2808 103.948 25.8383 92.8021 25.8383 92.8021C28.252 88.7329 29.7417 84.1829 30.2019 79.4741Z" fill="black"/>
<path opacity="0.4" d="M64.5891 93.1812C64.5891 93.1812 63.6879 94.2247 62.2176 95.5527C59.2769 98.3274 53.9884 102.525 48.5576 103.07C44.4549 103.497 38.8106 100.96 34.1861 98.3274C31.3163 96.6748 28.5521 94.8452 25.9095 92.8492C26.8177 91.2314 27.6102 89.5513 28.2811 87.8216C29.4227 85.1953 30.0738 82.3821 30.202 79.5212C36.8008 81.0815 43.589 81.6884 50.3599 81.3236C53.3715 81.1595 56.3357 80.5025 59.1346 79.3789C59.4182 81.1473 59.8062 82.8974 60.2966 84.62C60.8013 86.4904 61.5008 88.3026 62.3836 90.0271C62.8804 91.2264 63.6331 92.3029 64.5891 93.1812Z" fill="white"/>
<path d="M61.8378 130.319C61.7441 130.341 61.6469 130.341 61.5532 130.319C44.8696 120.487 31.2669 106.186 22.2808 89.0311C22.2325 88.9593 22.2005 88.8778 22.187 88.7923C22.1736 88.7068 22.179 88.6193 22.2029 88.5362C22.2268 88.453 22.2687 88.3761 22.3255 88.3108C22.3824 88.2455 22.4528 88.1935 22.5319 88.1583C22.611 88.1231 22.6968 88.1058 22.7834 88.1073C22.8699 88.1089 22.955 88.1293 23.0328 88.1673C23.1106 88.2053 23.1791 88.2598 23.2336 88.3271C23.288 88.3944 23.3271 88.4728 23.348 88.5568C32.1429 105.231 45.3404 119.175 61.5058 128.873C65.5706 114.508 65.6444 99.3078 61.7192 84.9046C61.6824 84.7507 61.7063 84.5886 61.7857 84.4517C61.8652 84.3149 61.9942 84.2138 62.1461 84.1695C62.2224 84.1481 62.3023 84.1422 62.3809 84.1522C62.4595 84.1622 62.5353 84.1878 62.6039 84.2276C62.6724 84.2674 62.7323 84.3206 62.7799 84.3839C62.8276 84.4472 62.862 84.5195 62.8813 84.5963C66.9394 99.4694 66.7752 115.179 62.407 129.964C62.3774 130.045 62.3302 130.12 62.2687 130.181C62.2072 130.243 62.133 130.29 62.0512 130.319H61.8378Z" fill="black"/>
<path d="M61.838 129.727C61.838 129.727 70.3755 138.383 63.8301 139.213C57.2847 140.043 61.838 129.727 61.838 129.727Z" fill="white"/>
<path d="M63.1188 139.782C62.581 139.823 62.0415 139.73 61.5488 139.51C61.0561 139.291 60.6258 138.952 60.2967 138.525C58.3995 135.869 61.0081 130.13 61.3164 129.489C61.3504 129.4 61.4082 129.322 61.4835 129.264C61.5588 129.205 61.6486 129.168 61.7433 129.157C61.8372 129.137 61.9349 129.141 62.0265 129.17C62.1181 129.199 62.2004 129.252 62.2651 129.323C62.8342 129.893 67.7907 135.015 66.7472 137.932C66.3915 138.952 65.4429 139.545 63.9014 139.734L63.1188 139.782ZM62.0279 130.794C61.2453 132.762 60.1544 136.296 61.2453 137.908C61.5619 138.242 61.9624 138.484 62.4047 138.609C62.847 138.734 63.3148 138.738 63.7591 138.62C64.8026 138.62 65.4429 138.169 65.6326 137.624C66.1543 136.035 63.9014 132.857 62.0279 130.794Z" fill="black"/>
<path opacity="0.2" d="M63.0238 95.316C63.6222 94.6641 64.1471 93.9483 64.589 93.1816C64.589 93.1816 64.0198 94.0117 63.0238 95.316Z" fill="black"/>
<path opacity="0.2" d="M90.8419 111.181C89.4901 109.877 88.6601 109.142 88.6601 109.142C88.6601 109.142 88.6601 128.114 87.1897 132.074C85.9091 135.537 62.3599 136.391 55.1979 136.557C59.9409 125.624 61.6721 109.094 62.1465 96.4542L63.0476 95.3396C62.7868 95.6242 62.4785 95.9325 62.1465 96.2408C62.1465 96.0273 62.1465 95.7902 62.1465 95.5767C62.1465 93.6321 62.265 91.8298 62.265 90.1223C62.265 88.4148 62.265 86.2804 62.265 84.7152H60.1544C59.664 82.9926 59.2759 81.2425 58.9923 79.4741C56.1934 80.5977 53.2292 81.2547 50.2177 81.4188C50.028 82.6757 49.7671 83.9326 49.5062 85.1658C48.2906 90.5799 46.7059 95.9046 44.7632 101.102C41.0826 100.632 37.4792 99.6829 34.0439 98.2803C36.949 100.651 40.2158 102.541 43.7197 103.877C41.8225 108.739 40.3047 111.845 40.3047 111.845C21.8543 105.656 7.83858 100.486 7.83858 100.486L4.06787 108.881C4.87419 111.253 5.65679 113.624 6.43939 115.996L8.19432 121.616C10.0678 127.663 11.6805 133.118 12.9374 138.217C24.463 145.687 39.3798 152.446 48.5102 145.877C48.5102 145.877 60.771 156.762 91.743 154.817C92.3503 140.267 92.0493 125.694 90.8419 111.181Z" fill="black"/>
<path d="M63.5218 60.4546C63.3558 61.0238 63.2134 61.5692 63.0237 62.091C62.1308 65.403 60.1254 68.3069 57.3444 70.315C54.5633 72.3231 51.1759 73.313 47.7511 73.1185C46.543 73.1991 45.3308 73.1991 44.1227 73.1185C43.3638 73.1185 42.5338 72.9288 41.7512 72.7865C13.2929 68.0435 11.8937 16.4154 39.3796 14.8977C55.9803 13.9728 61.7668 22.5577 63.9012 39.5615C65.0239 46.4926 64.8954 53.5688 63.5218 60.4546Z" fill="#B16668"/>
<path d="M53.1344 39.1108C54.5872 41.5142 56.3316 43.7286 58.328 45.7037C57.8787 46.4133 57.2427 46.9856 56.4898 47.3579C55.7368 47.7301 54.896 47.8881 54.0593 47.8143L53.1344 39.1108Z" fill="#9A4A4D"/>
<path d="M42.9131 38.3045C42.9131 39.6563 42.3677 40.8183 41.4665 40.8895C40.5653 40.9606 39.7353 39.9171 39.6404 38.5179C39.5456 37.1187 40.1859 36.0041 41.087 35.933C41.9882 35.8618 42.8183 36.9527 42.9131 38.3045Z" fill="black"/>
<path d="M40.7078 36.075L43.5773 34.6758C43.5773 34.6758 42.2967 37.2844 40.7078 36.075Z" fill="black"/>
<path d="M59.8461 36.6917C59.9647 38.0672 59.3007 39.2056 58.3995 39.2767C57.4983 39.3478 56.6683 38.3044 56.5734 36.9052C56.4785 35.506 57.1189 34.3913 58.02 34.3202C58.9212 34.249 59.6801 35.3399 59.8461 36.6917Z" fill="black"/>
<path d="M57.4742 34.4627L60.3438 33.0635C60.3438 33.0635 59.158 35.6722 57.4742 34.4627Z" fill="black"/>
<path d="M35.0634 30.6444C34.8859 30.6324 34.7145 30.5753 34.5653 30.4784C34.3824 30.3412 34.2602 30.1381 34.2247 29.9122C34.1893 29.6863 34.2434 29.4555 34.3756 29.2689C35.3365 28.1611 36.5412 27.2912 37.8949 26.7275C39.2487 26.1637 40.7148 25.9215 42.1779 26.0199C42.4066 26.0381 42.6189 26.1451 42.7696 26.318C42.9203 26.4909 42.9974 26.7159 42.9843 26.9448C42.9753 27.0571 42.9442 27.1664 42.8928 27.2666C42.8414 27.3668 42.7707 27.4559 42.6847 27.5286C42.5987 27.6013 42.4992 27.6564 42.3919 27.6905C42.2846 27.7246 42.1716 27.7371 42.0594 27.7274C40.8868 27.6552 39.713 27.848 38.625 28.2914C37.5371 28.7348 36.563 29.4174 35.7748 30.2887C35.6914 30.3984 35.5838 30.4876 35.4605 30.5493C35.3371 30.6109 35.2013 30.6435 35.0634 30.6444Z" fill="black"/>
<path d="M60.7945 27.3718C60.6431 27.3804 60.493 27.3387 60.3677 27.2532C59.5176 26.6622 58.5454 26.2702 57.5232 26.106C56.501 25.9417 55.455 26.0096 54.4626 26.3046C54.255 26.3958 54.0197 26.4008 53.8085 26.3185C53.5972 26.2362 53.4273 26.0734 53.3361 25.8659C53.2449 25.6583 53.2399 25.423 53.3222 25.2117C53.4045 25.0005 53.5673 24.8306 53.7749 24.7394C55.0126 24.3279 56.3286 24.208 57.6203 24.389C58.912 24.57 60.1445 25.0471 61.2214 25.7828C61.32 25.8369 61.4066 25.9104 61.4759 25.9989C61.5452 26.0874 61.5958 26.1891 61.6246 26.2978C61.6535 26.4064 61.6599 26.5199 61.6436 26.6311C61.6273 26.7423 61.5886 26.8491 61.5297 26.9449C61.4591 27.0775 61.3528 27.1877 61.223 27.2631C61.0931 27.3385 60.9447 27.3761 60.7945 27.3718Z" fill="black"/>
<path d="M22.779 43.6875C22.779 43.6875 29.775 29.6481 28.0438 19.2134C28.0438 19.2134 60.1305 4.01191 63.6167 37.2132C63.6167 37.2132 65.2056 7.47437 36.6999 8.37554C8.19421 9.27672 10.6132 50.9207 25.9806 62.5174C25.9332 62.5174 18.4629 52.4622 22.779 43.6875Z" fill="black"/>
<path d="M25.6722 47.0318C25.4072 45.1247 24.3975 43.4003 22.8642 42.2359C21.3308 41.0714 19.3986 40.5618 17.4904 40.8184C12.3917 41.6485 10.5182 52.3203 23.4193 54.1701C25.2928 54.431 26.2176 52.5812 25.6722 47.0318Z" fill="#B16668"/>
<path d="M53.1347 57.1578C51.271 57.1186 49.4647 56.5055 47.9623 55.4021C46.4599 54.2986 45.3344 52.7585 44.7395 50.9919C44.7035 50.841 44.728 50.682 44.8078 50.549C44.8876 50.416 45.0163 50.3196 45.1664 50.2804C45.2412 50.2592 45.3195 50.2535 45.3966 50.2637C45.4736 50.274 45.5478 50.2999 45.6144 50.3399C45.6811 50.3799 45.7389 50.4331 45.7842 50.4963C45.8295 50.5595 45.8613 50.6313 45.8778 50.7072C46.4061 52.2434 47.4007 53.5763 48.7229 54.5201C50.045 55.4639 51.6288 55.9715 53.2533 55.972C53.3312 55.978 53.4072 55.9994 53.4769 56.0348C53.5465 56.0703 53.6085 56.1192 53.6592 56.1787C53.7099 56.2382 53.7483 56.3072 53.7723 56.3816C53.7962 56.456 53.8052 56.5344 53.7987 56.6123C53.7754 56.7694 53.6945 56.9122 53.5718 57.013C53.4491 57.1138 53.2933 57.1654 53.1347 57.1578Z" fill="black"/>
<path opacity="0.1" d="M63.024 62.0908C62.1311 65.4029 60.1257 68.3068 57.3446 70.3149C54.5635 72.323 51.1761 73.3129 47.7513 73.1184C51.3086 67.2844 58.9212 63.3952 63.024 62.0908Z" fill="black"/>
<path d="M44.0278 47.2451C42.5634 47.2451 41.1319 46.8105 39.9146 45.9965C38.6973 45.1824 37.7489 44.0254 37.1896 42.672C36.6303 41.3186 36.4852 39.8296 36.7726 38.3937C37.06 36.9578 37.767 35.6394 38.8042 34.6056C39.8414 33.5717 41.162 32.8689 42.5989 32.5861C44.0357 32.3033 45.5242 32.4532 46.8758 33.0168C48.2274 33.5805 49.3813 34.5326 50.1915 35.7525C51.0016 36.9724 51.4316 38.4053 51.4269 39.8697C51.4206 41.8279 50.6383 43.7038 49.2514 45.0863C47.8645 46.4688 45.9861 47.2451 44.0278 47.2451ZM44.0278 33.6563C42.7989 33.6563 41.5976 34.0207 40.5758 34.7034C39.554 35.3862 38.7576 36.3565 38.2874 37.4919C37.8171 38.6272 37.694 39.8766 37.9338 41.0818C38.1735 42.2871 38.7653 43.3942 39.6343 44.2632C40.5032 45.1321 41.6103 45.7239 42.8156 45.9637C44.0209 46.2034 45.2702 46.0804 46.4055 45.6101C47.5409 45.1398 48.5113 44.3434 49.194 43.3216C49.8768 42.2999 50.2412 41.0986 50.2412 39.8697C50.2412 38.2218 49.5865 36.6413 48.4213 35.4761C47.2561 34.3109 45.6757 33.6563 44.0278 33.6563Z" fill="black"/>
<path d="M61.8382 44.5179C60.3805 44.5132 58.9569 44.0767 57.7471 43.2634C56.5373 42.4502 55.5957 41.2967 55.0411 39.9486C54.4865 38.6005 54.3438 37.1182 54.6311 35.6891C54.9183 34.26 55.6226 32.948 56.6551 31.9189C57.6875 30.8898 59.0017 30.1897 60.4317 29.9071C61.8617 29.6244 63.3435 29.7719 64.6898 30.3308C66.0361 30.8897 67.1866 31.835 67.996 33.0474C68.8053 34.2598 69.2373 35.6848 69.2373 37.1425C69.2373 38.113 69.0458 39.074 68.6736 39.9704C68.3015 40.8668 67.7561 41.6809 67.0687 42.3661C66.3813 43.0513 65.5655 43.5941 64.6679 43.9633C63.7704 44.3326 62.8087 44.521 61.8382 44.5179ZM61.8382 30.9528C60.615 30.9575 59.4206 31.3245 58.4059 32.0075C57.3911 32.6904 56.6015 33.6588 56.1366 34.7902C55.6718 35.9216 55.5526 37.1654 55.7941 38.3645C56.0356 39.5636 56.6269 40.6643 57.4935 41.5276C58.3601 42.3908 59.463 42.978 60.663 43.2149C61.8631 43.4518 63.1064 43.3279 64.236 42.8587C65.3657 42.3895 66.3309 41.5962 67.01 40.5788C67.6891 39.5615 68.0516 38.3657 68.0516 37.1425C68.0516 36.3276 67.8907 35.5208 67.5782 34.7683C67.2656 34.0158 66.8076 33.3324 66.2303 32.7573C65.653 32.1822 64.9678 31.7268 64.2141 31.4171C63.4604 31.1075 62.653 30.9497 61.8382 30.9528Z" fill="black"/>
<path d="M50.668 39.016C50.5212 39.0162 50.3789 38.9659 50.2648 38.8737C50.1547 38.7589 50.0931 38.6059 50.0931 38.4468C50.0931 38.2877 50.1547 38.1348 50.2648 38.02C51.1265 37.0728 52.3102 36.4809 53.5849 36.3599C53.9793 36.3842 54.3632 36.4971 54.7081 36.69C55.0529 36.883 55.3499 37.1511 55.577 37.4745C55.6592 37.5982 55.692 37.7482 55.6689 37.895C55.6458 38.0417 55.5684 38.1744 55.4522 38.2668C55.3359 38.3592 55.1892 38.4046 55.041 38.3941C54.8928 38.3835 54.7541 38.3177 54.6521 38.2097C54.5282 38.0223 54.3636 37.8653 54.1706 37.7504C53.9777 37.6354 53.7612 37.5654 53.5375 37.5456C52.6265 37.6968 51.792 38.1474 51.166 38.8263C51.1047 38.8961 51.0274 38.95 50.9406 38.983C50.8537 39.0161 50.7602 39.0274 50.668 39.016Z" fill="black"/>
<path d="M22.305 41.482C22.158 41.4821 22.0168 41.4254 21.9107 41.3237C21.8046 41.2221 21.7419 41.0833 21.7358 40.9365C21.7293 40.8586 21.7383 40.7802 21.7623 40.7058C21.7862 40.6314 21.8246 40.5624 21.8753 40.5029C21.926 40.4434 21.988 40.3945 22.0576 40.359C22.1273 40.3236 22.2033 40.3022 22.2813 40.2962L37.1981 39.2765C37.2767 39.2665 37.3564 39.2731 37.4323 39.2957C37.5081 39.3183 37.5784 39.3565 37.6387 39.4079C37.699 39.4592 37.7479 39.5225 37.7823 39.5938C37.8166 39.6651 37.8358 39.7428 37.8384 39.8219C37.8455 39.9779 37.7931 40.1307 37.6919 40.2495C37.5906 40.3684 37.4481 40.4444 37.293 40.4622L22.3524 41.482H22.305Z" fill="black"/>
<path d="M48.51 92.3278L50.8815 79.5928C50.8815 79.5928 49.2215 79.5928 49.6483 76.0592C50.0752 72.5256 58.7076 63.6087 62.3834 62.5178C66.0593 61.4269 69.2134 75.2529 69.498 76.0592C69.7826 76.8655 61.3162 84.3121 58.9684 83.4583L56.7629 94.6757L48.51 92.3278Z" fill="#B16668"/>
<path d="M0.866104 96.1222C-6.55676 114.359 36.1307 138.24 46.1385 139.118C56.1463 139.995 60.3676 86.6123 60.3676 86.6123L49.1029 84.6914C49.1029 84.6914 44.8816 123.442 40.6365 121.118C36.3915 118.794 6.39175 82.7468 0.866104 96.1222Z" fill="black"/>
<path opacity="0.4" d="M60.4388 86.6122C60.4388 86.6122 60.3203 87.964 60.1068 90.288C59.9645 91.4975 59.8459 92.9916 59.6562 94.6991C59.2768 98.0429 58.8025 102.146 58.1622 106.557C57.925 108.051 57.7116 109.569 57.4507 111.086C56.6444 115.972 55.6958 120.928 54.5575 125.315C54.1069 127.023 53.6088 128.636 53.0871 130.058C51.2136 135.655 48.9132 139.402 46.1623 139.141C45.1047 139.04 44.0623 138.817 43.0556 138.477C41.5064 138.014 39.986 137.46 38.5022 136.817C34.5934 135.13 30.7989 133.189 27.1427 131.007L23.3245 128.636C20.3908 126.744 17.557 124.702 14.8344 122.517C13.6012 121.545 12.4629 120.525 11.3246 119.529C8.69551 117.158 6.31196 114.528 4.21002 111.679C3.22989 110.319 2.37275 108.875 1.64877 107.363C0.718929 105.655 0.167743 103.767 0.0327004 101.828C-0.102343 99.8881 0.18192 97.942 0.866167 96.122C2.45509 92.2564 6.10724 92.5173 10.5657 94.8888C11.868 95.6048 13.127 96.3967 14.3364 97.2603C16.3759 98.6832 18.4866 100.391 20.621 102.217C21.7356 103.165 22.8265 104.161 23.9174 105.158C26.2889 107.387 28.6604 109.711 31.032 111.893C32.1703 112.984 33.2612 114.051 34.2335 115.047C36.0833 116.897 37.6485 118.462 38.858 119.553C39.4599 120.153 40.1192 120.693 40.8263 121.165C42.2492 121.948 43.7196 117.987 44.9765 112.391C45.5457 110.019 46.0437 107.387 46.518 104.707L47.3006 99.9639C47.7986 96.6912 48.2255 93.5608 48.5575 90.9758C48.8184 89.1023 48.9844 87.5134 49.1267 86.4462L49.3164 84.7861L60.4388 86.6122Z" fill="white"/>
<path d="M66.3674 139.141H52.8734C52.8734 139.141 49.2924 135.323 46.5652 135.323C43.8379 135.323 30.2966 133.592 29.7748 135.323C29.2531 137.054 32.5495 145.924 33.5929 147.797C34.6364 149.671 52.8971 148.509 52.8734 148.556C52.8497 148.604 55.0552 146.683 55.0552 146.683L66.3674 147.536V139.141Z" fill="#B16668"/>
<path d="M86.2648 86.0669C94.9209 86.8258 112.731 125.434 107.798 142.604C104.336 154.628 58.1385 148.557 58.1385 148.557V137.671C58.1385 137.671 90.6284 136.983 93.8537 134.422C97.0789 131.861 91.4822 119.648 91.4822 119.648C89.1233 114.311 87.3116 108.749 86.0751 103.047C84.6443 97.4687 84.7098 91.6118 86.2648 86.0669Z" fill="black"/>
<path opacity="0.4" d="M86.2648 86.0669C94.9209 86.8258 112.731 125.434 107.798 142.604C104.336 154.628 58.1385 148.557 58.1385 148.557V137.671C58.1385 137.671 90.6284 136.983 93.8537 134.422C97.0789 131.861 91.4822 119.648 91.4822 119.648C89.1233 114.311 87.3116 108.749 86.0751 103.047C84.6443 97.4687 84.7098 91.6118 86.2648 86.0669Z" fill="white"/>
</svg>
